<svg xmlns="http://www.w3.org/2000/svg" width="13.562" height="13.545" viewBox="0 0 13.562 13.545">
  <path id="email" d="M10.754,9.047c0,.593.169.83.61.83.984,0,1.61-1.254,1.61-3.339,0-3.187-2.322-4.713-5.222-4.713a5.481,5.481,0,0,0-5.7,5.781c0,3.611,2.373,5.577,6.018,5.577a9.336,9.336,0,0,0,3.339-.56l.273,1.135a12.082,12.082,0,0,1-3.629.525C3.278,14.284.717,11.657.717,7.6A6.673,6.673,0,0,1,7.77.739c4.255,0,6.509,2.543,6.509,5.662,0,2.645-.83,4.662-3.441,4.662-1.187,0-1.966-.475-2.068-1.527a1.976,1.976,0,0,1-2.221,1.527c-1.475,0-2.712-1.136-2.712-3.424,0-2.305,1.086-3.73,3.035-3.73A1.95,1.95,0,0,1,8.837,4.96l.492-.9h1.424V9.047h0ZM8.669,6.809A1.248,1.248,0,0,0,7.4,5.487c-.627,0-1.322.508-1.322,2,0,1.187.525,1.848,1.322,1.848A1.241,1.241,0,0,0,8.669,8Z" transform="translate(-0.717 -0.739)" fill="#eef2ff"/>
</svg>
