<svg xmlns="http://www.w3.org/2000/svg" width="72.949" height="59.922" viewBox="0 0 72.949 59.922">
  <g id="icon-001" transform="translate(-419.026 -1186.039)">
    <path id="car-svgrepo-com" d="M3,17.315l9.966,8.3a3.661,3.661,0,0,0,2.344.849H56.6a3.66,3.66,0,0,0,2.344-.849l9.966-8.3M15.815,39.284h.037m40.24,0h.037M21.9,4.5H50.011a7.322,7.322,0,0,1,6.358,3.69L66.977,26.753a14.648,14.648,0,0,1,1.93,7.267V55.761a3.661,3.661,0,0,1-3.661,3.661H61.584a3.661,3.661,0,0,1-3.661-3.661V52.1H13.984v3.661a3.661,3.661,0,0,1-3.661,3.661H6.661A3.661,3.661,0,0,1,3,55.761V34.02a14.646,14.646,0,0,1,1.93-7.267L15.537,8.19A7.323,7.323,0,0,1,21.9,4.5Zm-4.25,34.784a1.831,1.831,0,1,1-1.831-1.831A1.831,1.831,0,0,1,17.646,39.284Zm40.276,0a1.831,1.831,0,1,1-1.831-1.831A1.831,1.831,0,0,1,57.922,39.284Z" transform="translate(419.547 1184.039)" fill="none" stroke="#234579" stroke-linecap="round" stroke-linejoin="round" stroke-width="5"/>
    <circle id="Ellipse_1" data-name="Ellipse 1" cx="4.5" cy="4.5" r="4.5" transform="translate(431 1219)" fill="#e1e1e1"/>
    <circle id="Ellipse_2" data-name="Ellipse 2" cx="4.5" cy="4.5" r="4.5" transform="translate(471 1219)" fill="#e1e1e1"/>
  </g>
</svg>
