<svg xmlns="http://www.w3.org/2000/svg" width="86.004" height="63.472" viewBox="0 0 86.004 63.472">
  <g id="icon-004" transform="translate(-413.495 -1182.526)">
    <g id="sport-car-left-svgrepo-com" transform="translate(413.001 1191.502)">
      <path id="primary" d="M11.6,43H7.5A4.5,4.5,0,0,1,3,38.5V28.238a4.5,4.5,0,0,1,3.06-4.5L16.5,20.5,33.287,7.9a4.5,4.5,0,0,1,2.7-.9H63.569a4.5,4.5,0,0,1,3.78,2.025L75,20.5l6.524,3.24A4.5,4.5,0,0,1,84,27.788V38.5A4.5,4.5,0,0,1,79.5,43h-4" transform="translate(0 0)" fill="none" stroke="#fff" stroke-linecap="round" stroke-linejoin="round" stroke-width="5"/>
      <line id="primary-2" data-name="primary" x1="26.098" transform="translate(30.452 42.997)" fill="none" stroke="#fff" stroke-linecap="round" stroke-linejoin="round" stroke-width="5"/>
      <path id="secondary" d="M50,22a9,9,0,1,0,9-9A9,9,0,0,0,50,22ZM5,22a9,9,0,1,0,9-9A9,9,0,0,0,5,22Z" transform="translate(7.004 20.998)" fill="none" stroke="#42669d" stroke-linecap="round" stroke-linejoin="round" stroke-width="5"/>
      <path id="Path_8" data-name="Path 8" d="M39.036,14.2,27.271,23.026H44.306V14.2Z" transform="translate(-0.805)" fill="#fff"/>
    </g>
    <path id="star" d="M33.006,12.2a1.433,1.433,0,0,1-.516.952l-7.2,7.022L27,30.089a2.947,2.947,0,0,1,.02.4,1.17,1.17,0,0,1-.208.7.7.7,0,0,1-.606.288,1.6,1.6,0,0,1-.793-.238L16.5,26.559,7.6,31.24a1.683,1.683,0,0,1-.793.238.72.72,0,0,1-.624-.288,1.174,1.174,0,0,1-.209-.7,3.242,3.242,0,0,1,.039-.4l1.706-9.917L.5,13.151A1.511,1.511,0,0,1,0,12.2q0-.733,1.111-.912l9.958-1.448L15.531.813Q15.908,0,16.5,0t.972.813l4.463,9.025L31.9,11.286q1.111.179,1.111.912Z" transform="matrix(0.978, 0.208, -0.208, 0.978, 463.044, 1182.526)" fill="#e94242"/>
    <path id="star-2" data-name="star" d="M24.93,9.214a1.082,1.082,0,0,1-.39.719l-5.438,5.3,1.289,7.491a2.226,2.226,0,0,1,.015.3.884.884,0,0,1-.157.532.53.53,0,0,1-.458.217,1.21,1.21,0,0,1-.6-.18L12.465,20.06,5.738,23.6a1.271,1.271,0,0,1-.6.18.544.544,0,0,1-.472-.217.887.887,0,0,1-.158-.532,2.449,2.449,0,0,1,.03-.3l1.289-7.491L.375,9.933A1.141,1.141,0,0,1,0,9.214q0-.554.839-.689L8.361,7.431,11.731.614Q12.016,0,12.465,0T13.2.614L16.57,7.431l7.521,1.093q.839.135.839.689Z" transform="matrix(0.978, 0.208, -0.208, 0.978, 466.193, 1187.132)" fill="#fff"/>
  </g>
</svg>
