<svg xmlns="http://www.w3.org/2000/svg" width="13.562" height="15.819" viewBox="0 0 13.562 15.819">
  <g id="map-marker-solid-badged" transform="translate(-6.22 -1)">
    <path id="Path_9" data-name="Path 9" d="M17.318,7.41a3.52,3.52,0,0,1-2.54-1.173,3.1,3.1,0,1,1-.759-1.414,3.5,3.5,0,0,1,.146-2.281A5.537,5.537,0,0,0,6.22,7.523a9.857,9.857,0,0,0,2.139,5.386l.165.245a46.94,46.94,0,0,0,2.893,3.77l.358.419.358-.419a47.039,47.039,0,0,0,2.893-3.77l.165-.25c.9-1.343,2.135-3.181,2.135-5.382A.915.915,0,0,1,17.318,7.41Z" transform="translate(0 -0.524)" fill="#fbfdff"/>
    <path id="Path_10" data-name="Path 10" d="M17.785,10.468A1.758,1.758,0,1,1,16.028,8.71a1.758,1.758,0,0,1,1.758,1.758Z" transform="translate(-4.257 -4.077)" fill="#fbfdff"/>
    <path id="Path_11" data-name="Path 11" d="M29.712,3.356A2.356,2.356,0,1,1,27.356,1,2.356,2.356,0,0,1,29.712,3.356Z" transform="translate(-9.93)" fill="#fbfdff"/>
  </g>
</svg>
