<svg xmlns="http://www.w3.org/2000/svg" width="12.475" height="13.385" viewBox="0 0 12.475 13.385">
  <path id="phone" d="M12.709,9.58c-.808-.691-1.629-1.111-2.428-.42L9.8,9.578c-.349.3-1,1.718-3.506-1.167S5.282,5.08,5.632,4.78l.479-.418c.794-.692.495-1.563-.078-2.46l-.346-.543c-.575-.895-1.2-1.482-2-.791l-.43.376A4.041,4.041,0,0,0,1.683,3.618c-.287,1.9.619,4.076,2.7,6.464s4.1,3.588,6.027,3.568a4.051,4.051,0,0,0,2.866-1.187l.432-.376C14.5,11.4,14,10.692,13.2,10l-.486-.418Z" transform="translate(-1.631 -0.264)" fill="#eef2ff"/>
</svg>
